<svg width="21" height="27" viewBox="0 0 21 27" fill="none" xmlns="http://www.w3.org/2000/svg">
<path d="M8.8399 0.274414C11.711 8.26074 5.36725 8.54395 1.86949 13.6222C-0.566374 17.1588 -0.976503 24.9414 7.80084 26.9805C4.10943 24.9697 3.31647 19.1357 7.30865 15.4824C6.27793 19.0254 8.17189 21.2963 10.553 20.4626C12.8868 19.6455 14.403 21.3814 14.3633 23.3555C14.336 24.7148 13.9258 25.7627 12.4766 26.5273C12.4766 26.5273 20.4883 24.9414 20.4883 16.8418C20.4883 11.9141 16.2501 11.2308 18.3829 7.09961C15.8399 7.32617 14.9619 9.04745 15.211 11.8857C15.3751 13.7549 13.4883 15.0387 12.0938 14.1803C10.9611 13.483 11.0001 12.1088 11.9844 11.0928C14.0803 8.92964 14.9102 3.98438 8.8399 0.274414Z" fill="#D8D8D8"/>
</svg>
